<?xml version="1.0" encoding="UTF-8"?>
<svg viewBox="0 0 800 600" xmlns="http://www.w3.org/2000/svg">
  <!-- Background is transparent by default -->
  
  <!-- 3D Cube (Polytope) -->
  <g transform="translate(150, 150)">
    <polygon points="0,0 70,20 70,90 0,70" fill="rgba(173, 216, 230, 0.6)" stroke="#0066cc" stroke-width="2"/>
    <polygon points="0,0 50,-50 120,-30 70,20" fill="rgba(173, 216, 230, 0.6)" stroke="#0066cc" stroke-width="2"/>
    <polygon points="70,20 120,-30 120,40 70,90" fill="rgba(173, 216, 230, 0.6)" stroke="#0066cc" stroke-width="2"/>

  </g>
  
  <!-- Tetrahedron (Polytope) -->
  <g transform="translate(300, 150)">
    <polygon points="0,0 60,30 30,60" fill="rgba(255, 182, 193, 0.6)" stroke="#cc3366" stroke-width="2"/>
    <polygon points="0,0 30,60 -20,50" fill="rgba(255, 182, 193, 0.6)" stroke="#cc3366" stroke-width="2"/>
    <polygon points="0,0 -20,50 -10,-30" fill="rgba(255, 182, 193, 0.6)" stroke="#cc3366" stroke-width="2"/>
    <polygon points="0,0 -10,-30 60,30" fill="rgba(255, 182, 193, 0.6)" stroke="#cc3366" stroke-width="2"/>
    <line x1="-20" y1="50" x2="30" y2="60" stroke="#cc3366" stroke-width="2"/>
    <line x1="30" y1="60" x2="60" y2="30" stroke="#cc3366" stroke-width="2"/>
    <line x1="-10" y1="-30" x2="-20" y2="50" stroke="#cc3366" stroke-width="2"/>
    <line x1="-10" y1="-30" x2="60" y2="30" stroke="#cc3366" stroke-width="2"/>

  </g>
  
  <!-- Matroid Representation -->
  <g transform="translate(600, 150)">
    <!-- Base circles -->
    <circle cx="0" cy="0" r="10" fill="#5cb85c" stroke="#2b542c" stroke-width="2"/>
    <circle cx="40" cy="0" r="10" fill="#5cb85c" stroke="#2b542c" stroke-width="2"/>
    <circle cx="80" cy="0" r="10" fill="#5cb85c" stroke="#2b542c" stroke-width="2"/>
    <circle cx="20" cy="40" r="10" fill="#5cb85c" stroke="#2b542c" stroke-width="2"/>
    <circle cx="60" cy="40" r="10" fill="#5cb85c" stroke="#2b542c" stroke-width="2"/>
    
    <!-- Independent sets -->
    <line x1="0" y1="0" x2="40" y2="0" stroke="#2b542c" stroke-width="2"/>
    <line x1="40" y1="0" x2="80" y2="0" stroke="#2b542c" stroke-width="2"/>
    <line x1="0" y1="0" x2="20" y2="40" stroke="#2b542c" stroke-width="2"/>
    <line x1="40" y1="0" x2="20" y2="40" stroke="#2b542c" stroke-width="2"/>
    <line x1="40" y1="0" x2="60" y2="40" stroke="#2b542c" stroke-width="2"/>
    <line x1="80" y1="0" x2="60" y2="40" stroke="#2b542c" stroke-width="2"/>
    

  </g>
  
  <!-- Graph with Paths -->
  <g transform="translate(150, 350)">
    <!-- Nodes -->
    <circle cx="0" cy="0" r="15" fill="#f0ad4e" stroke="#8a6d3b" stroke-width="2"/>
    <circle cx="80" cy="20" r="15" fill="#f0ad4e" stroke="#8a6d3b" stroke-width="2"/>
    <circle cx="150" cy="-10" r="15" fill="#f0ad4e" stroke="#8a6d3b" stroke-width="2"/>
    <circle cx="40" cy="80" r="15" fill="#f0ad4e" stroke="#8a6d3b" stroke-width="2"/>
    <circle cx="120" cy="90" r="15" fill="#f0ad4e" stroke="#8a6d3b" stroke-width="2"/>
    <circle cx="200" cy="60" r="15" fill="#f0ad4e" stroke="#8a6d3b" stroke-width="2"/>
    
    <!-- Edges -->
    <line x1="0" y1="0" x2="80" y2="20" stroke="#8a6d3b" stroke-width="2"/>
    <line x1="80" y1="20" x2="150" y2="-10" stroke="#8a6d3b" stroke-width="2"/>
    <line x1="0" y1="0" x2="40" y2="80" stroke="#8a6d3b" stroke-width="2"/>
    <line x1="40" y1="80" x2="120" y2="90" stroke="#8a6d3b" stroke-width="2"/>
    <line x1="80" y1="20" x2="40" y2="80" stroke="#8a6d3b" stroke-width="2"/>
    <line x1="80" y1="20" x2="120" y2="90" stroke="#8a6d3b" stroke-width="2"/>
    <line x1="150" y1="-10" x2="200" y2="60" stroke="#8a6d3b" stroke-width="2"/>
    <line x1="120" y1="90" x2="200" y2="60" stroke="#8a6d3b" stroke-width="2"/>
    
    <!-- Highlighted Path -->
    <line x1="0" y1="0" x2="80" y2="20" stroke="#d9534f" stroke-width="4"/>
    <line x1="80" y1="20" x2="120" y2="90" stroke="#d9534f" stroke-width="4"/>
    <line x1="120" y1="90" x2="200" y2="60" stroke="#d9534f" stroke-width="4"/>
    

  </g>
  
  <!-- Directed Graph with Path -->
  <g transform="translate(500, 350)">
    <!-- Nodes -->
    <circle cx="0" cy="0" r="15" fill="#5bc0de" stroke="#31708f" stroke-width="2"/>
    <circle cx="60" cy="50" r="15" fill="#5bc0de" stroke="#31708f" stroke-width="2"/>
    <circle cx="120" cy="0" r="15" fill="#5bc0de" stroke="#31708f" stroke-width="2"/>
    <circle cx="180" cy="50" r="15" fill="#5bc0de" stroke="#31708f" stroke-width="2"/>
    <circle cx="240" cy="0" r="15" fill="#5bc0de" stroke="#31708f" stroke-width="2"/>
    
    <!-- Directed Edges -->
    <line x1="15" y1="0" x2="45" y2="50" stroke="#31708f" stroke-width="2"/>
    <polygon points="45,50 37,42 42,38" fill="#31708f" stroke="#31708f" stroke-width="1"/>
    
    <line x1="75" y1="50" x2="105" y2="0" stroke="#31708f" stroke-width="2"/>
    <polygon points="105,0 97,8 92,4" fill="#31708f" stroke="#31708f" stroke-width="1"/>
    
    <line x1="135" y1="0" x2="165" y2="50" stroke="#31708f" stroke-width="2"/>
    <polygon points="165,50 157,42 162,38" fill="#31708f" stroke="#31708f" stroke-width="1"/>
    
    <line x1="195" y1="50" x2="225" y2="0" stroke="#31708f" stroke-width="2"/>
    <polygon points="225,0 217,8 212,4" fill="#31708f" stroke="#31708f" stroke-width="1"/>
    
    <line x1="0" y1="15" x2="0" y2="85" stroke="#31708f" stroke-width="2" stroke-dasharray="5,5"/>
    <polygon points="0,85 -5,75 5,75" fill="#31708f" stroke="#31708f" stroke-width="1"/>
    
    <line x1="240" y1="15" x2="240" y2="85" stroke="#31708f" stroke-width="2" stroke-dasharray="5,5"/>
    <polygon points="240,85 235,75 245,75" fill="#31708f" stroke="#31708f" stroke-width="1"/>
    
    <!-- Highlighted Path -->
    <line x1="15" y1="0" x2="45" y2="50" stroke="#d9534f" stroke-width="4"/>
    <line x1="75" y1="50" x2="105" y2="0" stroke="#d9534f" stroke-width="4"/>
    <line x1="135" y1="0" x2="165" y2="50" stroke="#d9534f" stroke-width="4"/>
    <polygon points="165,50 157,42 162,38" fill="#d9534f" stroke="#d9534f" stroke-width="1"/>
    

  </g>
  
  <!-- Connecting Lines between the Structures -->
  <path d="M200,200 C300,250 400,250 500,200" stroke="#999" stroke-width="1" stroke-dasharray="5,5" fill="none"/>
  <path d="M200,400 C300,450 400,450 500,400" stroke="#999" stroke-width="1" stroke-dasharray="5,5" fill="none"/>
  <path d="M150,250 C150,300 150,300 150,350" stroke="#999" stroke-width="1" stroke-dasharray="5,5" fill="none"/>
  <path d="M600,250 C600,300 600,300 500,350" stroke="#999" stroke-width="1" stroke-dasharray="5,5" fill="none"/>
  </svg>