<?xml version="1.0" encoding="UTF-8"?>
<svg xmlns="http://www.w3.org/2000/svg" xmlns:xlink="http://www.w3.org/1999/xlink" width="487" height="373" viewBox="0 0 487 373">
<path fill-rule="evenodd" fill="rgb(0%, 0%, 0%)" fill-opacity="1" d="M 37.359375 49.152344 C 37.359375 46.753906 33.761719 46.753906 33.761719 49.152344 C 33.761719 51.554688 37.359375 51.554688 37.359375 49.152344 Z M 37.359375 49.152344 "/>
<path fill-rule="evenodd" fill="rgb(0%, 0%, 0%)" fill-opacity="1" d="M 101.359375 49.152344 C 101.359375 46.753906 97.761719 46.753906 97.761719 49.152344 C 97.761719 51.554688 101.359375 51.554688 101.359375 49.152344 Z M 101.359375 49.152344 "/>
<path fill-rule="evenodd" fill="rgb(0%, 0%, 0%)" fill-opacity="1" d="M 149.359375 49.152344 C 149.359375 46.753906 145.761719 46.753906 145.761719 49.152344 C 145.761719 51.554688 149.359375 51.554688 149.359375 49.152344 Z M 149.359375 49.152344 "/>
<path fill-rule="evenodd" fill="rgb(0%, 0%, 0%)" fill-opacity="1" d="M 213.359375 49.152344 C 213.359375 46.753906 209.761719 46.753906 209.761719 49.152344 C 209.761719 51.554688 213.359375 51.554688 213.359375 49.152344 Z M 213.359375 49.152344 "/>
<path fill="none" stroke-width="0.4" stroke-linecap="butt" stroke-linejoin="round" stroke="rgb(0%, 0%, 0%)" stroke-opacity="1" stroke-miterlimit="10" d="M 158.558594 743.847656 C 158.558594 770.355469 137.070313 791.847656 110.558594 791.847656 C 84.050781 791.847656 62.558594 770.355469 62.558594 743.847656 C 62.558594 717.335938 84.050781 695.847656 110.558594 695.847656 C 137.070313 695.847656 158.558594 717.335938 158.558594 743.847656 Z M 158.558594 743.847656 " transform="matrix(1, 0, 0, -1, -43, 793)"/>
<path fill="none" stroke-width="0.4" stroke-linecap="butt" stroke-linejoin="round" stroke="rgb(0%, 0%, 0%)" stroke-opacity="1" stroke-miterlimit="10" d="M 270.558594 743.847656 C 270.558594 770.355469 249.070313 791.847656 222.558594 791.847656 C 196.050781 791.847656 174.558594 770.355469 174.558594 743.847656 C 174.558594 717.335938 196.050781 695.847656 222.558594 695.847656 C 249.070313 695.847656 270.558594 717.335938 270.558594 743.847656 Z M 270.558594 743.847656 " transform="matrix(1, 0, 0, -1, -43, 793)"/>
<path fill-rule="evenodd" fill="rgb(0%, 0%, 0%)" fill-opacity="1" d="M 21.359375 177.152344 C 21.359375 174.753906 17.761719 174.753906 17.761719 177.152344 C 17.761719 179.554688 21.359375 179.554688 21.359375 177.152344 Z M 21.359375 177.152344 "/>
<path fill-rule="evenodd" fill="rgb(0%, 0%, 0%)" fill-opacity="1" d="M 69.359375 145.152344 C 69.359375 142.753906 65.761719 142.753906 65.761719 145.152344 C 65.761719 147.554688 69.359375 147.554688 69.359375 145.152344 Z M 69.359375 145.152344 "/>
<path fill-rule="evenodd" fill="rgb(0%, 0%, 0%)" fill-opacity="1" d="M 85.359375 177.152344 C 85.359375 174.753906 81.761719 174.753906 81.761719 177.152344 C 81.761719 179.554688 85.359375 179.554688 85.359375 177.152344 Z M 85.359375 177.152344 "/>
<path fill-rule="evenodd" fill="rgb(0%, 0%, 0%)" fill-opacity="1" d="M 69.359375 209.152344 C 69.359375 206.753906 65.761719 206.753906 65.761719 209.152344 C 65.761719 211.554688 69.359375 211.554688 69.359375 209.152344 Z M 69.359375 209.152344 "/>
<path fill="none" stroke-width="0.4" stroke-linecap="butt" stroke-linejoin="round" stroke="rgb(0%, 0%, 0%)" stroke-opacity="1" stroke-miterlimit="10" d="M 145.15625 615.847656 C 145.15625 643.789063 122.503906 666.441406 94.558594 666.441406 C 66.617188 666.441406 43.964844 643.789063 43.964844 615.847656 C 43.964844 587.902344 66.617188 565.25 94.558594 565.25 C 122.503906 565.25 145.15625 587.902344 145.15625 615.847656 Z M 145.15625 615.847656 " transform="matrix(1, 0, 0, -1, -43, 793)"/>
<path fill-rule="evenodd" fill="rgb(0%, 0%, 0%)" fill-opacity="1" d="M 149.359375 177.152344 C 149.359375 174.753906 145.761719 174.753906 145.761719 177.152344 C 145.761719 179.554688 149.359375 179.554688 149.359375 177.152344 Z M 149.359375 177.152344 "/>
<path fill-rule="evenodd" fill="rgb(0%, 0%, 0%)" fill-opacity="1" d="M 197.359375 145.152344 C 197.359375 142.753906 193.761719 142.753906 193.761719 145.152344 C 193.761719 147.554688 197.359375 147.554688 197.359375 145.152344 Z M 197.359375 145.152344 "/>
<path fill-rule="evenodd" fill="rgb(0%, 0%, 0%)" fill-opacity="1" d="M 213.359375 177.152344 C 213.359375 174.753906 209.761719 174.753906 209.761719 177.152344 C 209.761719 179.554688 213.359375 179.554688 213.359375 177.152344 Z M 213.359375 177.152344 "/>
<path fill-rule="evenodd" fill="rgb(0%, 0%, 0%)" fill-opacity="1" d="M 197.359375 209.152344 C 197.359375 206.753906 193.761719 206.753906 193.761719 209.152344 C 193.761719 211.554688 197.359375 211.554688 197.359375 209.152344 Z M 197.359375 209.152344 "/>
<path fill="none" stroke-width="0.4" stroke-linecap="butt" stroke-linejoin="round" stroke="rgb(0%, 0%, 0%)" stroke-opacity="1" stroke-miterlimit="10" d="M 273.15625 615.847656 C 273.15625 643.789063 250.503906 666.441406 222.558594 666.441406 C 194.617188 666.441406 171.964844 643.789063 171.964844 615.847656 C 171.964844 587.902344 194.617188 565.25 222.558594 565.25 C 250.503906 565.25 273.15625 587.902344 273.15625 615.847656 Z M 273.15625 615.847656 " transform="matrix(1, 0, 0, -1, -43, 793)"/>
<path fill-rule="evenodd" fill="rgb(0%, 0%, 0%)" fill-opacity="1" d="M 277.359375 177.152344 C 277.359375 174.753906 273.761719 174.753906 273.761719 177.152344 C 273.761719 179.554688 277.359375 179.554688 277.359375 177.152344 Z M 277.359375 177.152344 "/>
<path fill-rule="evenodd" fill="rgb(0%, 0%, 0%)" fill-opacity="1" d="M 325.359375 145.152344 C 325.359375 142.753906 321.761719 142.753906 321.761719 145.152344 C 321.761719 147.554688 325.359375 147.554688 325.359375 145.152344 Z M 325.359375 145.152344 "/>
<path fill-rule="evenodd" fill="rgb(0%, 0%, 0%)" fill-opacity="1" d="M 341.359375 177.152344 C 341.359375 174.753906 337.761719 174.753906 337.761719 177.152344 C 337.761719 179.554688 341.359375 179.554688 341.359375 177.152344 Z M 341.359375 177.152344 "/>
<path fill-rule="evenodd" fill="rgb(0%, 0%, 0%)" fill-opacity="1" d="M 325.359375 209.152344 C 325.359375 206.753906 321.761719 206.753906 321.761719 209.152344 C 321.761719 211.554688 325.359375 211.554688 325.359375 209.152344 Z M 325.359375 209.152344 "/>
<path fill="none" stroke-width="0.4" stroke-linecap="butt" stroke-linejoin="round" stroke="rgb(0%, 0%, 0%)" stroke-opacity="1" stroke-miterlimit="10" d="M 401.15625 615.847656 C 401.15625 643.789063 378.503906 666.441406 350.558594 666.441406 C 322.617188 666.441406 299.964844 643.789063 299.964844 615.847656 C 299.964844 587.902344 322.617188 565.25 350.558594 565.25 C 378.503906 565.25 401.15625 587.902344 401.15625 615.847656 Z M 401.15625 615.847656 " transform="matrix(1, 0, 0, -1, -43, 793)"/>
<path fill-rule="evenodd" fill="rgb(0%, 0%, 0%)" fill-opacity="1" d="M 405.359375 177.152344 C 405.359375 174.753906 401.761719 174.753906 401.761719 177.152344 C 401.761719 179.554688 405.359375 179.554688 405.359375 177.152344 Z M 405.359375 177.152344 "/>
<path fill-rule="evenodd" fill="rgb(0%, 0%, 0%)" fill-opacity="1" d="M 453.359375 145.152344 C 453.359375 142.753906 449.761719 142.753906 449.761719 145.152344 C 449.761719 147.554688 453.359375 147.554688 453.359375 145.152344 Z M 453.359375 145.152344 "/>
<path fill-rule="evenodd" fill="rgb(0%, 0%, 0%)" fill-opacity="1" d="M 469.359375 177.152344 C 469.359375 174.753906 465.761719 174.753906 465.761719 177.152344 C 465.761719 179.554688 469.359375 179.554688 469.359375 177.152344 Z M 469.359375 177.152344 "/>
<path fill-rule="evenodd" fill="rgb(0%, 0%, 0%)" fill-opacity="1" d="M 453.359375 209.152344 C 453.359375 206.753906 449.761719 206.753906 449.761719 209.152344 C 449.761719 211.554688 453.359375 211.554688 453.359375 209.152344 Z M 453.359375 209.152344 "/>
<path fill="none" stroke-width="0.4" stroke-linecap="butt" stroke-linejoin="round" stroke="rgb(0%, 0%, 0%)" stroke-opacity="1" stroke-miterlimit="10" d="M 529.15625 615.847656 C 529.15625 643.789063 506.503906 666.441406 478.558594 666.441406 C 450.617188 666.441406 427.964844 643.789063 427.964844 615.847656 C 427.964844 587.902344 450.617188 565.25 478.558594 565.25 C 506.503906 565.25 529.15625 587.902344 529.15625 615.847656 Z M 529.15625 615.847656 " transform="matrix(1, 0, 0, -1, -43, 793)"/>
<path fill-rule="evenodd" fill="rgb(0%, 0%, 0%)" fill-opacity="1" d="M 69.359375 321.152344 C 69.359375 318.753906 65.761719 318.753906 65.761719 321.152344 C 65.761719 323.554688 69.359375 323.554688 69.359375 321.152344 Z M 69.359375 321.152344 "/>
<path fill-rule="evenodd" fill="rgb(0%, 0%, 0%)" fill-opacity="1" d="M 117.359375 289.152344 C 117.359375 286.753906 113.761719 286.753906 113.761719 289.152344 C 113.761719 291.554688 117.359375 291.554688 117.359375 289.152344 Z M 117.359375 289.152344 "/>
<path fill-rule="evenodd" fill="rgb(0%, 0%, 0%)" fill-opacity="1" d="M 133.359375 321.152344 C 133.359375 318.753906 129.761719 318.753906 129.761719 321.152344 C 129.761719 323.554688 133.359375 323.554688 133.359375 321.152344 Z M 133.359375 321.152344 "/>
<path fill-rule="evenodd" fill="rgb(0%, 0%, 0%)" fill-opacity="1" d="M 117.359375 353.152344 C 117.359375 350.753906 113.761719 350.753906 113.761719 353.152344 C 113.761719 355.554688 117.359375 355.554688 117.359375 353.152344 Z M 117.359375 353.152344 "/>
<path fill="none" stroke-width="0.4" stroke-linecap="butt" stroke-linejoin="round" stroke="rgb(0%, 0%, 0%)" stroke-opacity="1" stroke-miterlimit="10" d="M 193.15625 471.847656 C 193.15625 499.789063 170.503906 522.441406 142.558594 522.441406 C 114.617188 522.441406 91.964844 499.789063 91.964844 471.847656 C 91.964844 443.902344 114.617188 421.25 142.558594 421.25 C 170.503906 421.25 193.15625 443.902344 193.15625 471.847656 Z M 193.15625 471.847656 " transform="matrix(1, 0, 0, -1, -43, 793)"/>
<path fill-rule="evenodd" fill="rgb(0%, 0%, 0%)" fill-opacity="1" d="M 341.359375 321.152344 C 341.359375 318.753906 337.761719 318.753906 337.761719 321.152344 C 337.761719 323.554688 341.359375 323.554688 341.359375 321.152344 Z M 341.359375 321.152344 "/>
<path fill-rule="evenodd" fill="rgb(0%, 0%, 0%)" fill-opacity="1" d="M 389.359375 289.152344 C 389.359375 286.753906 385.761719 286.753906 385.761719 289.152344 C 385.761719 291.554688 389.359375 291.554688 389.359375 289.152344 Z M 389.359375 289.152344 "/>
<path fill-rule="evenodd" fill="rgb(0%, 0%, 0%)" fill-opacity="1" d="M 405.359375 321.152344 C 405.359375 318.753906 401.761719 318.753906 401.761719 321.152344 C 401.761719 323.554688 405.359375 323.554688 405.359375 321.152344 Z M 405.359375 321.152344 "/>
<path fill-rule="evenodd" fill="rgb(0%, 0%, 0%)" fill-opacity="1" d="M 389.359375 353.152344 C 389.359375 350.753906 385.761719 350.753906 385.761719 353.152344 C 385.761719 355.554688 389.359375 355.554688 389.359375 353.152344 Z M 389.359375 353.152344 "/>
<path fill="none" stroke-width="0.4" stroke-linecap="butt" stroke-linejoin="round" stroke="rgb(0%, 0%, 0%)" stroke-opacity="1" stroke-miterlimit="10" d="M 465.15625 471.847656 C 465.15625 499.789063 442.503906 522.441406 414.558594 522.441406 C 386.617188 522.441406 363.964844 499.789063 363.964844 471.847656 C 363.964844 443.902344 386.617188 421.25 414.558594 421.25 C 442.503906 421.25 465.15625 443.902344 465.15625 471.847656 Z M 465.15625 471.847656 " transform="matrix(1, 0, 0, -1, -43, 793)"/>
<path fill-rule="evenodd" fill="rgb(0%, 0%, 0%)" fill-opacity="1" d="M 309.359375 17.152344 C 309.359375 14.753906 305.761719 14.753906 305.761719 17.152344 C 305.761719 19.554688 309.359375 19.554688 309.359375 17.152344 Z M 309.359375 17.152344 "/>
<path fill-rule="evenodd" fill="rgb(0%, 0%, 0%)" fill-opacity="1" d="M 293.359375 65.152344 C 293.359375 62.753906 289.761719 62.753906 289.761719 65.152344 C 289.761719 67.554688 293.359375 67.554688 293.359375 65.152344 Z M 293.359375 65.152344 "/>
<path fill-rule="evenodd" fill="rgb(0%, 0%, 0%)" fill-opacity="1" d="M 325.359375 65.152344 C 325.359375 62.753906 321.761719 62.753906 321.761719 65.152344 C 321.761719 67.554688 325.359375 67.554688 325.359375 65.152344 Z M 325.359375 65.152344 "/>
<path fill="none" stroke-width="0.4" stroke-linecap="butt" stroke-linejoin="round" stroke="rgb(0%, 0%, 0%)" stroke-opacity="1" stroke-miterlimit="10" d="M 398.558594 743.847656 C 398.558594 770.355469 377.070313 791.847656 350.558594 791.847656 C 324.050781 791.847656 302.558594 770.355469 302.558594 743.847656 C 302.558594 717.335938 324.050781 695.847656 350.558594 695.847656 C 377.070313 695.847656 398.558594 717.335938 398.558594 743.847656 Z M 398.558594 743.847656 " transform="matrix(1, 0, 0, -1, -43, 793)"/>
<path fill-rule="evenodd" fill="rgb(0%, 0%, 0%)" fill-opacity="1" d="M 437.359375 17.152344 C 437.359375 14.753906 433.761719 14.753906 433.761719 17.152344 C 433.761719 19.554688 437.359375 19.554688 437.359375 17.152344 Z M 437.359375 17.152344 "/>
<path fill-rule="evenodd" fill="rgb(0%, 0%, 0%)" fill-opacity="1" d="M 421.359375 65.152344 C 421.359375 62.753906 417.761719 62.753906 417.761719 65.152344 C 417.761719 67.554688 421.359375 67.554688 421.359375 65.152344 Z M 421.359375 65.152344 "/>
<path fill-rule="evenodd" fill="rgb(0%, 0%, 0%)" fill-opacity="1" d="M 453.359375 65.152344 C 453.359375 62.753906 449.761719 62.753906 449.761719 65.152344 C 449.761719 67.554688 453.359375 67.554688 453.359375 65.152344 Z M 453.359375 65.152344 "/>
<path fill="none" stroke-width="0.4" stroke-linecap="butt" stroke-linejoin="round" stroke="rgb(0%, 0%, 0%)" stroke-opacity="1" stroke-miterlimit="10" d="M 526.558594 743.847656 C 526.558594 770.355469 505.070313 791.847656 478.558594 791.847656 C 452.050781 791.847656 430.558594 770.355469 430.558594 743.847656 C 430.558594 717.335938 452.050781 695.847656 478.558594 695.847656 C 505.070313 695.847656 526.558594 717.335938 526.558594 743.847656 Z M 526.558594 743.847656 " transform="matrix(1, 0, 0, -1, -43, 793)"/>
<path fill="none" stroke-width="0.4" stroke-linecap="butt" stroke-linejoin="round" stroke="rgb(0%, 0%, 0%)" stroke-opacity="1" stroke-miterlimit="10" d="M 190.558594 743.847656 L 254.558594 743.847656 " transform="matrix(1, 0, 0, -1, -43, 793)"/>
<path fill="none" stroke-width="0.4" stroke-linecap="butt" stroke-linejoin="round" stroke="rgb(0%, 0%, 0%)" stroke-opacity="1" stroke-miterlimit="10" d="M 334.558594 727.847656 L 366.558594 727.847656 " transform="matrix(1, 0, 0, -1, -43, 793)"/>
<path fill="none" stroke-width="0.4" stroke-linecap="butt" stroke-linejoin="round" stroke="rgb(0%, 0%, 0%)" stroke-opacity="1" stroke-miterlimit="10" d="M 478.558594 775.847656 L 462.558594 727.847656 " transform="matrix(1, 0, 0, -1, -43, 793)"/>
<path fill="none" stroke-width="0.4" stroke-linecap="butt" stroke-linejoin="round" stroke="rgb(0%, 0%, 0%)" stroke-opacity="1" stroke-miterlimit="10" d="M 494.558594 727.847656 L 478.558594 775.847656 " transform="matrix(1, 0, 0, -1, -43, 793)"/>
<path fill="none" stroke-width="0.4" stroke-linecap="butt" stroke-linejoin="round" stroke="rgb(0%, 0%, 0%)" stroke-opacity="1" stroke-miterlimit="10" d="M 110.558594 647.847656 L 126.558594 615.847656 L 110.558594 583.847656 " transform="matrix(1, 0, 0, -1, -43, 793)"/>
<path fill="none" stroke-width="0.4" stroke-linecap="butt" stroke-linejoin="round" stroke="rgb(0%, 0%, 0%)" stroke-opacity="1" stroke-miterlimit="10" d="M 238.558594 647.847656 L 190.558594 615.847656 L 254.558594 615.847656 " transform="matrix(1, 0, 0, -1, -43, 793)"/>
<path fill="none" stroke-width="0.4" stroke-linecap="butt" stroke-linejoin="round" stroke="rgb(0%, 0%, 0%)" stroke-opacity="1" stroke-miterlimit="10" d="M 238.558594 583.847656 L 190.558594 615.847656 " transform="matrix(1, 0, 0, -1, -43, 793)"/>
<path fill="none" stroke-width="0.4" stroke-linecap="butt" stroke-linejoin="round" stroke="rgb(0%, 0%, 0%)" stroke-opacity="1" stroke-miterlimit="10" d="M 366.558594 647.847656 L 318.558594 615.847656 L 382.558594 615.847656 L 366.558594 583.847656 " transform="matrix(1, 0, 0, -1, -43, 793)"/>
<path fill="none" stroke-width="0.4" stroke-linecap="butt" stroke-linejoin="round" stroke="rgb(0%, 0%, 0%)" stroke-opacity="1" stroke-miterlimit="10" d="M 494.558594 647.847656 L 510.558594 615.847656 L 494.558594 583.847656 L 446.558594 615.847656 " transform="matrix(1, 0, 0, -1, -43, 793)"/>
<path fill="none" stroke-width="0.4" stroke-linecap="butt" stroke-linejoin="round" stroke="rgb(0%, 0%, 0%)" stroke-opacity="1" stroke-miterlimit="10" d="M 158.558594 503.847656 L 158.558594 439.847656 L 174.558594 471.847656 L 158.558594 503.847656 " transform="matrix(1, 0, 0, -1, -43, 793)"/>
<path fill="none" stroke-width="0.4" stroke-linecap="butt" stroke-linejoin="round" stroke="rgb(0%, 0%, 0%)" stroke-opacity="1" stroke-miterlimit="10" d="M 430.558594 439.847656 L 382.558594 471.847656 L 430.558594 503.847656 L 446.558594 471.847656 L 382.558594 471.847656 " transform="matrix(1, 0, 0, -1, -43, 793)"/>
<path fill-rule="evenodd" fill="rgb(0%, 0%, 0%)" fill-opacity="1" d="M 70.558594 321.152344 C 70.558594 317.152344 64.558594 317.152344 64.558594 321.152344 C 64.558594 325.152344 70.558594 325.152344 70.558594 321.152344 Z M 69.558594 321.152344 C 69.558594 318.488281 65.558594 318.488281 65.558594 321.152344 C 65.558594 323.820313 69.558594 323.820313 69.558594 321.152344 Z M 69.558594 321.152344 "/>
<path fill-rule="evenodd" fill="rgb(0%, 0%, 0%)" fill-opacity="1" d="M 22.558594 177.152344 C 22.558594 173.152344 16.558594 173.152344 16.558594 177.152344 C 16.558594 181.152344 22.558594 181.152344 22.558594 177.152344 Z M 21.558594 177.152344 C 21.558594 174.488281 17.558594 174.488281 17.558594 177.152344 C 17.558594 179.820313 21.558594 179.820313 21.558594 177.152344 Z M 21.558594 177.152344 "/>
<path fill-rule="evenodd" fill="rgb(0%, 0%, 0%)" fill-opacity="1" d="M 150.558594 177.152344 C 150.558594 173.152344 144.558594 173.152344 144.558594 177.152344 C 144.558594 181.152344 150.558594 181.152344 150.558594 177.152344 Z M 149.558594 177.152344 C 149.558594 174.488281 145.558594 174.488281 145.558594 177.152344 C 145.558594 179.820313 149.558594 179.820313 149.558594 177.152344 Z M 149.558594 177.152344 "/>
<path fill-rule="evenodd" fill="rgb(0%, 0%, 0%)" fill-opacity="1" d="M 278.558594 177.152344 C 278.558594 173.152344 272.558594 173.152344 272.558594 177.152344 C 272.558594 181.152344 278.558594 181.152344 278.558594 177.152344 Z M 277.558594 177.152344 C 277.558594 174.488281 273.558594 174.488281 273.558594 177.152344 C 273.558594 179.820313 277.558594 179.820313 277.558594 177.152344 Z M 277.558594 177.152344 "/>
<path fill-rule="evenodd" fill="rgb(0%, 0%, 0%)" fill-opacity="1" d="M 406.558594 177.152344 C 406.558594 173.152344 400.558594 173.152344 400.558594 177.152344 C 400.558594 181.152344 406.558594 181.152344 406.558594 177.152344 Z M 405.558594 177.152344 C 405.558594 174.488281 401.558594 174.488281 401.558594 177.152344 C 401.558594 179.820313 405.558594 179.820313 405.558594 177.152344 Z M 405.558594 177.152344 "/>
<path fill-rule="evenodd" fill="rgb(0%, 0%, 0%)" fill-opacity="1" d="M 342.558594 321.152344 C 342.558594 317.152344 336.558594 317.152344 336.558594 321.152344 C 336.558594 325.152344 342.558594 325.152344 342.558594 321.152344 Z M 341.558594 321.152344 C 341.558594 318.488281 337.558594 318.488281 337.558594 321.152344 C 337.558594 323.820313 341.558594 323.820313 341.558594 321.152344 Z M 341.558594 321.152344 "/>
<path fill-rule="evenodd" fill="rgb(0%, 0%, 0%)" fill-opacity="1" d="M 38.558594 49.152344 C 38.558594 45.152344 32.558594 45.152344 32.558594 49.152344 C 32.558594 53.152344 38.558594 53.152344 38.558594 49.152344 Z M 37.558594 49.152344 C 37.558594 46.488281 33.558594 46.488281 33.558594 49.152344 C 33.558594 51.820313 37.558594 51.820313 37.558594 49.152344 Z M 37.558594 49.152344 "/>
<path fill-rule="evenodd" fill="rgb(0%, 0%, 0%)" fill-opacity="1" d="M 150.558594 49.152344 C 150.558594 45.152344 144.558594 45.152344 144.558594 49.152344 C 144.558594 53.152344 150.558594 53.152344 150.558594 49.152344 Z M 149.558594 49.152344 C 149.558594 46.488281 145.558594 46.488281 145.558594 49.152344 C 145.558594 51.820313 149.558594 51.820313 149.558594 49.152344 Z M 149.558594 49.152344 "/>
<path fill-rule="evenodd" fill="rgb(0%, 0%, 0%)" fill-opacity="1" d="M 310.558594 17.152344 C 310.558594 13.152344 304.558594 13.152344 304.558594 17.152344 C 304.558594 21.152344 310.558594 21.152344 310.558594 17.152344 Z M 309.558594 17.152344 C 309.558594 14.488281 305.558594 14.488281 305.558594 17.152344 C 305.558594 19.820313 309.558594 19.820313 309.558594 17.152344 Z M 309.558594 17.152344 "/>
<path fill-rule="evenodd" fill="rgb(0%, 0%, 0%)" fill-opacity="1" d="M 438.558594 17.152344 C 438.558594 13.152344 432.558594 13.152344 432.558594 17.152344 C 432.558594 21.152344 438.558594 21.152344 438.558594 17.152344 Z M 437.558594 17.152344 C 437.558594 14.488281 433.558594 14.488281 433.558594 17.152344 C 433.558594 19.820313 437.558594 19.820313 437.558594 17.152344 Z M 437.558594 17.152344 "/>
<path fill="none" stroke-width="0.4" stroke-linecap="butt" stroke-linejoin="round" stroke="rgb(0%, 0%, 0%)" stroke-opacity="1" stroke-miterlimit="10" d="M 89.382813 743.847656 C 89.382813 749.824219 84.535156 754.667969 78.558594 754.667969 C 72.582031 754.667969 67.738281 749.824219 67.738281 743.847656 C 67.738281 737.871094 72.582031 733.023438 78.558594 733.023438 C 84.535156 733.023438 89.382813 737.871094 89.382813 743.847656 Z M 89.382813 743.847656 " transform="matrix(1, 0, 0, -1, -43, 793)"/>
<path fill="none" stroke-width="0.4" stroke-linecap="butt" stroke-linejoin="round" stroke="rgb(0%, 0%, 0%)" stroke-opacity="1" stroke-miterlimit="10" d="M 201.699219 743.789063 C 201.699219 749.765625 196.855469 754.609375 190.878906 754.609375 C 184.902344 754.609375 180.054688 749.765625 180.054688 743.789063 C 180.054688 737.8125 184.902344 732.964844 190.878906 732.964844 C 196.855469 732.964844 201.699219 737.8125 201.699219 743.789063 Z M 201.699219 743.789063 " transform="matrix(1, 0, 0, -1, -43, 793)"/>
<path fill="none" stroke-width="0.4" stroke-linecap="butt" stroke-linejoin="round" stroke="rgb(0%, 0%, 0%)" stroke-opacity="1" stroke-miterlimit="10" d="M 361.324219 775.6875 C 361.324219 781.664063 356.476563 786.507813 350.5 786.507813 C 344.523438 786.507813 339.679688 781.664063 339.679688 775.6875 C 339.679688 769.710938 344.523438 764.863281 350.5 764.863281 C 356.476563 764.863281 361.324219 769.710938 361.324219 775.6875 Z M 361.324219 775.6875 " transform="matrix(1, 0, 0, -1, -43, 793)"/>
<path fill="none" stroke-width="0.4" stroke-linecap="butt" stroke-linejoin="round" stroke="rgb(0%, 0%, 0%)" stroke-opacity="1" stroke-miterlimit="10" d="M 489.46875 775.503906 C 489.46875 781.480469 484.625 786.324219 478.648438 786.324219 C 472.671875 786.324219 467.824219 781.480469 467.824219 775.503906 C 467.824219 769.527344 472.671875 764.683594 478.648438 764.683594 C 484.625 764.683594 489.46875 769.527344 489.46875 775.503906 Z M 489.46875 775.503906 " transform="matrix(1, 0, 0, -1, -43, 793)"/>
<path fill="none" stroke-width="0.4" stroke-linecap="butt" stroke-linejoin="round" stroke="rgb(0%, 0%, 0%)" stroke-opacity="1" stroke-miterlimit="10" d="M 73.390625 615.46875 C 73.390625 621.445313 68.546875 626.292969 62.570313 626.292969 C 56.589844 626.292969 51.746094 621.445313 51.746094 615.46875 C 51.746094 609.492188 56.589844 604.648438 62.570313 604.648438 C 68.546875 604.648438 73.390625 609.492188 73.390625 615.46875 Z M 73.390625 615.46875 " transform="matrix(1, 0, 0, -1, -43, 793)"/>
<path fill="none" stroke-width="0.4" stroke-linecap="butt" stroke-linejoin="round" stroke="rgb(0%, 0%, 0%)" stroke-opacity="1" stroke-miterlimit="10" d="M 201.617188 616.078125 C 201.617188 622.054688 196.773438 626.898438 190.796875 626.898438 C 184.820313 626.898438 179.976563 622.054688 179.976563 616.078125 C 179.976563 610.101563 184.820313 605.253906 190.796875 605.253906 C 196.773438 605.253906 201.617188 610.101563 201.617188 616.078125 Z M 201.617188 616.078125 " transform="matrix(1, 0, 0, -1, -43, 793)"/>
<path fill="none" stroke-width="0.4" stroke-linecap="butt" stroke-linejoin="round" stroke="rgb(0%, 0%, 0%)" stroke-opacity="1" stroke-miterlimit="10" d="M 329.5625 616.0625 C 329.5625 622.039063 324.714844 626.886719 318.738281 626.886719 C 312.761719 626.886719 307.917969 622.039063 307.917969 616.0625 C 307.917969 610.085938 312.761719 605.242188 318.738281 605.242188 C 324.714844 605.242188 329.5625 610.085938 329.5625 616.0625 Z M 329.5625 616.0625 " transform="matrix(1, 0, 0, -1, -43, 793)"/>
<path fill="none" stroke-width="0.4" stroke-linecap="butt" stroke-linejoin="round" stroke="rgb(0%, 0%, 0%)" stroke-opacity="1" stroke-miterlimit="10" d="M 457.5625 616.320313 C 457.5625 622.296875 452.71875 627.144531 446.742188 627.144531 C 440.765625 627.144531 435.917969 622.296875 435.917969 616.320313 C 435.917969 610.34375 440.765625 605.5 446.742188 605.5 C 452.71875 605.5 457.5625 610.34375 457.5625 616.320313 Z M 457.5625 616.320313 " transform="matrix(1, 0, 0, -1, -43, 793)"/>
<path fill="none" stroke-width="0.4" stroke-linecap="butt" stroke-linejoin="round" stroke="rgb(0%, 0%, 0%)" stroke-opacity="1" stroke-miterlimit="10" d="M 121.660156 471.9375 C 121.660156 477.914063 116.816406 482.761719 110.839844 482.761719 C 104.863281 482.761719 100.015625 477.914063 100.015625 471.9375 C 100.015625 465.960938 104.863281 461.117188 110.839844 461.117188 C 116.816406 461.117188 121.660156 465.960938 121.660156 471.9375 Z M 121.660156 471.9375 " transform="matrix(1, 0, 0, -1, -43, 793)"/>
<path fill="none" stroke-width="0.4" stroke-linecap="butt" stroke-linejoin="round" stroke="rgb(0%, 0%, 0%)" stroke-opacity="1" stroke-miterlimit="10" d="M 393.589844 472.300781 C 393.589844 478.277344 388.742188 483.121094 382.765625 483.121094 C 376.789063 483.121094 371.945313 478.277344 371.945313 472.300781 C 371.945313 466.320313 376.789063 461.476563 382.765625 461.476563 C 388.742188 461.476563 393.589844 466.320313 393.589844 472.300781 Z M 393.589844 472.300781 " transform="matrix(1, 0, 0, -1, -43, 793)"/>
</svg>
